<?xml version="1.0" standalone="no"?><!DOCTYPE svg PUBLIC "-//W3C//DTD SVG 1.1//EN" "http://www.w3.org/Graphics/SVG/1.1/DTD/svg11.dtd"><svg t="1611284934406" class="icon" viewBox="0 0 1024 1024" version="1.1" xmlns="http://www.w3.org/2000/svg" p-id="1431" width="256" height="256" xmlns:xlink="http://www.w3.org/1999/xlink"><defs><style type="text/css"></style></defs><path d="M640 64 896 320 640 320Z" p-id="1432" fill="#515151"></path><path d="M896 768c0 35.328-28.608 64-64 64L256 832 256 128c0-35.328 28.608-64 64-64l256 0 0 320 320 0L896 768z" p-id="1433" fill="#515151"></path><path d="M768 896c0 35.328-28.608 64-64 64L192 960c-35.392 0-64-28.672-64-64L128 256c0-35.328 28.608-64 64-64l0 704L768 896z" p-id="1434" fill="#515151"></path></svg>